<?xml version="1.0" encoding="UTF-8" standalone="no"?>
<svg viewBox="0 0 50 50"
 xmlns="http://www.w3.org/2000/svg" xmlns:xlink="http://www.w3.org/1999/xlink"  version="1.2" baseProfile="tiny">
<title>Qt SVG Document</title>
<desc>Generated with Qt</desc>
<defs>
</defs>
<g fill="none" stroke="black" stroke-width="1" fill-rule="evenodd" stroke-linecap="square" stroke-linejoin="bevel" >

<g fill="#ff3232" fill-opacity="1" stroke="none" transform="matrix(1.13636,0,0,1.78571,0,-50)"
font-family="Noto Sans" font-size="10" font-weight="400" font-style="normal" 
opacity="0.7" >
<path vector-effect="none" fill-rule="evenodd" d="M0,31.92 C0,29.755 1.77295,28 3.96,28 L40.04,28 C42.227,28 44,29.755 44,31.92 L44,52.08 C44,54.245 42.227,56 40.04,56 L3.96,56 C1.77295,56 0,54.245 0,52.08 L0,31.92"/>
</g>

<g fill="#ffffff" fill-opacity="1" stroke="none" transform="matrix(1.13636,0,0,1.78571,0,-50)"
font-family="Noto Sans" font-size="10" font-weight="400" font-style="normal" 
>
<path vector-effect="none" fill-rule="nonzero" d="M28.296,35 C28.1163,35 27.9352,35.0675 27.7984,35.2051 L21.9931,41.0104 L16.1824,35.2051 C15.91,34.9372 15.4731,34.9372 15.2007,35.2051 C14.9328,35.4775 14.9328,35.9144 15.2007,36.1868 L21.0142,42.0002 L15.2089,47.811 C14.941,48.0834 14.941,48.5202 15.2089,48.7926 C15.4813,49.0605 15.9182,49.0605 16.1906,48.7926 L22.0013,42.9874 L27.8066,48.7926 C28.0803,49.0677 28.5255,49.0677 28.7992,48.7926 C29.0671,48.5202 29.0671,48.0833 28.7992,47.811 L22.9885,42.0002 L28.791,36.1868 C29.0589,35.9144 29.0589,35.4775 28.791,35.2051 C28.6541,35.0675 28.4758,35 28.2961,35 L28.296,35"/>
</g>

<g fill="#ff3232" fill-opacity="1" stroke="none" transform="matrix(1.13636,0,0,1.78571,0,-50)"
font-family="Noto Sans" font-size="10" font-weight="400" font-style="normal" 
opacity="0.7" >
<path vector-effect="none" fill-rule="nonzero" d="M3.81836,28 C1.70309,28 0,29.7031 0,31.8184 L0,52.1816 C0,54.2969 1.70309,56 3.81836,56 L40.1816,56 C42.2969,56 44,54.2969 44,52.1816 L44,31.8184 C44,29.7031 42.2969,28 40.1816,28 L3.81836,28 M4,29 L40,29 C41.662,29 43,30.338 43,32 L43,52 C43,53.662 41.662,55 40,55 L4,55 C2.338,55 1,53.662 1,52 L1,32 C1,30.338 2.338,29 4,29 "/>
</g>

<g fill="none" stroke="#000000" stroke-opacity="1" stroke-width="1" stroke-linecap="square" stroke-linejoin="bevel" transform="matrix(1,0,0,1,0,0)"
font-family="Noto Sans" font-size="10" font-weight="400" font-style="normal" 
>
</g>
</g>
</svg>
