<?xml version="1.0" encoding="UTF-8" standalone="no"?>
<svg viewBox="0 0 50 50"
 xmlns="http://www.w3.org/2000/svg" xmlns:xlink="http://www.w3.org/1999/xlink"  version="1.2" baseProfile="tiny">
<title>Qt SVG Document</title>
<desc>Generated with Qt</desc>
<defs>
</defs>
<g fill="none" stroke="black" stroke-width="1" fill-rule="evenodd" stroke-linecap="square" stroke-linejoin="bevel" >

<g fill="#000000" fill-opacity="1" stroke="none" transform="matrix(4.97306,0,0,5.90551,-2.63158,57.8125)"
font-family="Noto Sans" font-size="10" font-weight="400" font-style="normal" 
opacity="0.003" >
<rect x="0.529167" y="-9.78958" width="10.0542" height="8.46667"/>
</g>

<g fill="#000000" fill-opacity="1" stroke="none" transform="matrix(4.29492,0,0,6.74916,-79.5455,137.5)"
font-family="Noto Sans" font-size="10" font-weight="400" font-style="normal" 
opacity="0.003" >
<rect x="21.4313" y="-19.5792" width="5.82083" height="5.82083"/>
</g>

<g fill="#ffffff" fill-opacity="1" stroke="none" transform="matrix(1.13636,0,0,1.78571,-70.4545,175)"
font-family="Noto Sans" font-size="10" font-weight="400" font-style="normal" 
opacity="0.4" >
<path vector-effect="none" fill-rule="nonzero" d="M82,-92 C81.2589,-92 80.621,-91.5958 80.2754,-91 L89,-91 C90.108,-91 91,-90.108 91,-89 L91,-80.2754 C91.5958,-80.621 92,-81.2589 92,-82 L92,-89 C92,-90.662 90.662,-92 89,-92 L82,-92 M79,-89 C77.892,-89 77,-88.108 77,-87 L77,-79 C77,-77.892 77.892,-77 79,-77 L87,-77 C88.108,-77 89,-77.892 89,-79 L89,-87 C89,-88.108 88.108,-89 87,-89 L79,-89 M79,-88 L87,-88 C87.554,-88 88,-87.554 88,-87 L88,-79 C88,-78.446 87.554,-78 87,-78 L79,-78 C78.446,-78 78,-78.446 78,-79 L78,-87 C78,-87.554 78.446,-88 79,-88 "/>
</g>

<g fill="none" stroke="#000000" stroke-opacity="1" stroke-width="1" stroke-linecap="square" stroke-linejoin="bevel" transform="matrix(1,0,0,1,0,0)"
font-family="Noto Sans" font-size="10" font-weight="400" font-style="normal" 
>
</g>
</g>
</svg>
