<?xml version="1.0" encoding="UTF-8" standalone="no"?>
<svg viewBox="0 0 50 50"
 xmlns="http://www.w3.org/2000/svg" xmlns:xlink="http://www.w3.org/1999/xlink"  version="1.2" baseProfile="tiny">
<title>Qt SVG Document</title>
<desc>Generated with Qt</desc>
<defs>
</defs>
<g fill="none" stroke="black" stroke-width="1" fill-rule="evenodd" stroke-linecap="square" stroke-linejoin="bevel" >

<g fill="#ffffff" fill-opacity="1" stroke="none" transform="matrix(1.13636,0,0,1.78571,0,-50)"
font-family="Noto Sans" font-size="10" font-weight="400" font-style="normal" 
opacity="0.15" >
<path vector-effect="none" fill-rule="evenodd" d="M2.19831e-06,31.92 C2.19831e-06,29.755 1.77295,28 3.96,28 L40.04,28 C42.227,28 44,29.755 44,31.92 L44,52.08 C44,54.245 42.227,56 40.04,56 L3.96,56 C1.77295,56 2.19831e-06,54.245 2.19831e-06,52.08 L2.19831e-06,31.92"/>
</g>

<g fill="#000000" fill-opacity="1" stroke="none" transform="matrix(1.13636,0,0,1.78571,0,-50)"
font-family="Noto Sans" font-size="10" font-weight="400" font-style="normal" 
opacity="0.003" >
<rect x="11" y="31" width="22" height="22"/>
</g>

<g fill="#ffffff" fill-opacity="1" stroke="none" transform="matrix(1.13636,0,0,1.78571,0,-50)"
font-family="Noto Sans" font-size="10" font-weight="400" font-style="normal" 
>
<path vector-effect="none" fill-rule="nonzero" d="M17,35.0844 C15.892,35.0937 15,35.9764 15,37.0844 L15,47.0844 C15,48.1924 15.892,49.0937 17,49.0844 L27,49 C28.108,48.9907 29,48.108 29,47 L29,37 C29,35.892 28.108,34.9907 27,35 L17,35.0844 M17,36.0844 L27,36 C27.554,35.9953 28,36.446 28,37 L28,47 C28,47.554 27.554,47.9953 27,48 L17,48.0844 C16.446,48.0891 16,47.6384 16,47.0844 L16,37.0844 C16,36.5304 16.446,36.089 17,36.0844 "/>
</g>

<g fill="#ffffff" fill-opacity="1" stroke="none" transform="matrix(1.13636,0,0,1.78571,0,-50)"
font-family="Noto Sans" font-size="10" font-weight="400" font-style="normal" 
opacity="0.6" >
<path vector-effect="none" fill-rule="nonzero" d="M4,28 C1.784,28 0,29.784 0,32 L0,52 C0,54.216 1.784,56 4,56 L40,56 C42.216,56 44,54.216 44,52 L44,32 C44,29.784 42.216,28 40,28 L4,28 M4,29 L40,29 C41.662,29 43,30.338 43,32 L43,52 C43,53.662 41.662,55 40,55 L4,55 C2.338,55 1,53.662 1,52 L1,32 C1,30.338 2.338,29 4,29 "/>
</g>

<g fill="none" stroke="#000000" stroke-opacity="1" stroke-width="1" stroke-linecap="square" stroke-linejoin="bevel" transform="matrix(1,0,0,1,0,0)"
font-family="Noto Sans" font-size="10" font-weight="400" font-style="normal" 
>
</g>
</g>
</svg>
