<?xml version="1.0" encoding="UTF-8" standalone="no"?>
<svg viewBox="0 0 50 50"
 xmlns="http://www.w3.org/2000/svg" xmlns:xlink="http://www.w3.org/1999/xlink"  version="1.2" baseProfile="tiny">
<title>Qt SVG Document</title>
<desc>Generated with Qt</desc>
<defs>
</defs>
<g fill="none" stroke="black" stroke-width="1" fill-rule="evenodd" stroke-linecap="square" stroke-linejoin="bevel" >

<g fill="#ffffff" fill-opacity="1" stroke="none" transform="matrix(1.13636,0,0,1.78571,0,-50)"
font-family="Noto Sans" font-size="10" font-weight="400" font-style="normal" 
opacity="0.25" >
<path vector-effect="none" fill-rule="evenodd" d="M9.53674e-07,31.92 C9.53674e-07,29.755 1.77295,28 3.96,28 L40.04,28 C42.227,28 44,29.755 44,31.92 L44,52.08 C44,54.245 42.227,56 40.04,56 L3.96,56 C1.77295,56 9.53674e-07,54.245 9.53674e-07,52.08 L9.53674e-07,31.92"/>
</g>

<g fill="#ffffff" fill-opacity="1" stroke="none" transform="matrix(1.13636,0,0,1.78571,0,-50)"
font-family="Noto Sans" font-size="10" font-weight="400" font-style="normal" 
opacity="0.6" >
<path vector-effect="none" fill-rule="nonzero" d="M4,28 C1.784,28 0,29.784 0,32 L0,52 C0,54.216 1.784,56 4,56 L40,56 C42.216,56 44,54.216 44,52 L44,32 C44,29.784 42.216,28 40,28 L4,28 M4,29 L40,29 C41.662,29 43,30.338 43,32 L43,52 C43,53.662 41.662,55 40,55 L4,55 C2.338,55 1,53.662 1,52 L1,32 C1,30.338 2.338,29 4,29 "/>
</g>

<g fill="#ffffff" fill-opacity="1" stroke="none" transform="matrix(1.13636,0,0,1.78571,0,-50)"
font-family="Noto Sans" font-size="10" font-weight="400" font-style="normal" 
>
<path vector-effect="none" fill-rule="nonzero" d="M20,34 C19.2589,34 18.621,34.4042 18.2754,35 L27,35 C28.108,35 29,35.892 29,37 L29,45.7246 C29.5958,45.379 30,44.7411 30,44 L30,37 C30,35.338 28.662,34 27,34 L20,34 M17,37 C15.892,37 15,37.892 15,39 L15,47 C15,48.108 15.892,49 17,49 L25,49 C26.108,49 27,48.108 27,47 L27,39 C27,37.892 26.108,37 25,37 L17,37 M17,38 L25,38 C25.554,38 26,38.446 26,39 L26,47 C26,47.554 25.554,48 25,48 L17,48 C16.446,48 16,47.554 16,47 L16,39 C16,38.446 16.446,38 17,38 "/>
</g>

<g fill="none" stroke="#000000" stroke-opacity="1" stroke-width="1" stroke-linecap="square" stroke-linejoin="bevel" transform="matrix(1,0,0,1,0,0)"
font-family="Noto Sans" font-size="10" font-weight="400" font-style="normal" 
>
</g>
</g>
</svg>
