<?xml version="1.0" encoding="UTF-8" standalone="no"?>
<svg viewBox="0 0 50 50"
 xmlns="http://www.w3.org/2000/svg" xmlns:xlink="http://www.w3.org/1999/xlink"  version="1.2" baseProfile="tiny">
<title>Qt SVG Document</title>
<desc>Generated with Qt</desc>
<defs>
</defs>
<g fill="none" stroke="black" stroke-width="1" fill-rule="evenodd" stroke-linecap="square" stroke-linejoin="bevel" >

<g fill="#646464" fill-opacity="1" stroke="none" transform="matrix(4.97306,0,0,5.90551,-2.63158,57.8125)"
font-family="Noto Sans" font-size="10" font-weight="400" font-style="normal" 
opacity="0.003" >
<rect x="0.529167" y="-9.78958" width="10.0542" height="8.46667"/>
</g>

<g fill="#000000" fill-opacity="1" stroke="none" transform="matrix(4.29492,0,0,6.74916,-79.5455,137.5)"
font-family="Noto Sans" font-size="10" font-weight="400" font-style="normal" 
opacity="0.003" >
<rect x="21.4313" y="-19.5792" width="5.82083" height="5.82083"/>
</g>

<g fill="#ffffff" fill-opacity="1" stroke="none" transform="matrix(1.13636,0,0,1.78571,-70.4545,175)"
font-family="Noto Sans" font-size="10" font-weight="400" font-style="normal" 
opacity="0.4" >
<path vector-effect="none" fill-rule="nonzero" d="M79,-91 C77.892,-91 77,-90.108 77,-89 L77,-79 C77,-77.892 77.892,-77 79,-77 L89,-77 C90.108,-77 91,-77.892 91,-79 L91,-89 C91,-90.108 90.108,-91 89,-91 L79,-91 M79,-90 L89,-90 C89.554,-90 90,-89.554 90,-89 L90,-79 C90,-78.446 89.554,-78 89,-78 L79,-78 C78.446,-78 78,-78.446 78,-79 L78,-89 C78,-89.554 78.446,-90 79,-90 "/>
</g>

<g fill="none" stroke="#000000" stroke-opacity="1" stroke-width="1" stroke-linecap="square" stroke-linejoin="bevel" transform="matrix(1,0,0,1,0,0)"
font-family="Noto Sans" font-size="10" font-weight="400" font-style="normal" 
>
</g>
</g>
</svg>
